<?xml version="1.0" standalone="no"?>
<!DOCTYPE svg PUBLIC "-//W3C//DTD SVG 20010904//EN"
 "http://www.w3.org/TR/2001/REC-SVG-20010904/DTD/svg10.dtd">
<svg version="1.0" xmlns="http://www.w3.org/2000/svg"
 width="80.000000pt" height="80.000000pt" viewBox="0 0 80.000000 80.000000"
 preserveAspectRatio="xMidYMid meet">
<metadata>
Created by potrace 1.14, written by Peter Selinger 2001-2017
</metadata>
<g transform="translate(0.000000,80.000000) scale(0.100000,-0.100000)"
fill="#000000" stroke="none">
<path d="M157 644 c-3 -4 -2 -15 3 -25 7 -11 7 -20 0 -24 -5 -3 -7 -12 -3 -20
3 -9 -1 -15 -8 -15 -12 0 -12 -2 0 -9 7 -5 11 -15 9 -22 -5 -15 14 -39 32 -39
6 0 8 -4 5 -10 -3 -5 0 -10 7 -10 8 0 21 -9 31 -20 9 -11 24 -20 32 -20 9 0
13 -4 10 -10 -3 -5 3 -10 14 -10 12 0 21 -5 21 -11 0 -5 -4 -8 -9 -5 -5 3 -12
-1 -15 -10 -4 -9 -13 -14 -22 -10 -8 3 -12 2 -9 -4 3 -6 2 -10 -2 -10 -5 0
-21 -11 -36 -25 -15 -14 -27 -22 -27 -18 0 4 -7 -3 -17 -16 -16 -24 -26 -138
-12 -147 9 -5 89 47 89 58 0 4 7 8 15 8 8 0 15 5 15 11 0 5 4 8 9 5 5 -3 12 1
15 10 4 9 9 14 12 11 3 -3 16 5 29 19 12 13 30 24 39 24 9 0 16 6 16 13 0 6 5
4 11 -5 5 -10 17 -18 24 -18 8 0 15 -4 15 -10 0 -5 7 -10 15 -10 7 0 18 -6 22
-13 4 -6 27 -25 51 -41 23 -16 42 -33 42 -38 0 -5 4 -7 9 -3 6 3 19 -5 30 -17
20 -21 21 -21 22 -2 5 73 3 126 -4 131 -4 2 -5 9 -2 14 4 5 -2 6 -11 2 -14 -5
-16 -3 -11 11 4 9 3 15 -2 11 -5 -3 -16 2 -24 10 -9 8 -18 15 -22 15 -4 0 -13
6 -20 13 -34 30 -43 35 -49 30 -3 -4 -6 -1 -6 5 0 7 5 12 11 12 18 0 127 84
134 103 4 10 11 14 18 10 9 -5 8 -2 0 8 -7 9 -11 25 -8 37 2 12 0 24 -6 27 -5
4 -5 13 1 24 13 26 1 34 -27 16 -13 -9 -29 -13 -35 -9 -6 4 -8 3 -5 -3 3 -5
-3 -17 -14 -26 -10 -9 -19 -14 -19 -10 0 3 -11 -6 -25 -21 -14 -15 -25 -24
-25 -21 0 4 -7 -1 -16 -10 -13 -13 -19 -13 -33 -3 -14 11 -14 11 -3 -3 10 -14
9 -19 -11 -32 -18 -12 -27 -13 -36 -4 -6 6 -11 8 -11 4 0 -7 -35 20 -71 55 -9
9 -19 15 -21 12 -2 -2 -19 10 -37 26 -18 17 -36 30 -40 30 -5 0 -14 7 -21 15
-13 16 -23 19 -33 9z m188 -252 c-3 -3 -11 0 -18 7 -9 10 -8 11 6 5 10 -3 15
-9 12 -12z m60 0 c-3 -3 -11 0 -18 7 -9 10 -8 11 6 5 10 -3 15 -9 12 -12z"/>
</g>
</svg>
